<?xml version="1.0" standalone="no"?>
<!DOCTYPE svg PUBLIC "-//W3C//DTD SVG 20010904//EN"
 "http://www.w3.org/TR/2001/REC-SVG-20010904/DTD/svg10.dtd">
<svg version="1.0" xmlns="http://www.w3.org/2000/svg"
 width="512.000000pt" height="512.000000pt" viewBox="0 0 512.000000 512.000000"
 preserveAspectRatio="xMidYMid meet">

<g transform="translate(0.000000,512.000000) scale(0.100000,-0.100000)"
fill="#000000" stroke="none">
<path d="M4340 4640 l0 -390 390 0 390 0 0 390 0 390 -390 0 -390 0 0 -390z"/>
<path d="M4183 1219 l-143 -68 0 -161 0 -160 145 0 145 0 0 230 c0 127 -1 230
-2 229 -2 0 -67 -32 -145 -70z"/>
<path d="M790 1061 l0 -221 145 0 145 0 0 153 0 153 -136 65 c-76 35 -141 66
-145 67 -5 2 -9 -96 -9 -217z"/>
<path d="M1600 681 l0 -221 145 0 145 0 0 153 0 153 -137 64 c-76 35 -141 65
-145 67 -5 2 -8 -95 -8 -216z"/>
<path d="M3370 836 l-135 -63 -3 -162 -2 -161 145 0 145 0 0 225 c0 124 -3
225 -7 225 -5 0 -69 -29 -143 -64z"/>
<path d="M2410 304 l0 -214 150 0 150 0 0 215 c0 118 -2 215 -4 215 -3 0 -38
-15 -78 -33 l-74 -34 -72 33 -72 33 0 -215z"/>
</g>
</svg>
